PathFileType	4	(x/y/z)	S09_PSF_T07
DataRate	CameraRate	NumFrames	NumMarkers	Units	OrigDataRate	OrigDataStartFrame	OrigNumFrames
240	240	6	51	mm	240	229	456
Frame#	Time	Sternum			R.Acromium			L.Acromium			Top.Head			R.ASIS			L.ASIS			R.PSIS			L.PSIS			R.Great.Tro			L.Great.Tro			R.Iliac.Crest			L.Iliac.Crest			V.Sacral			R.Thigh.Upper.Post			R.Thigh.Lower.Ant			R.Thigh.Lower.Post			R.Thigh.Upper.Ant			R.Knee.Lat			R.Knee.Med			R.Shank.Upper.Post			R.Shank.Lower.Ant			R.Shank.Lower.Post			R.Shank.Upper.Ant			R.Ankle.Lat			R.Ankle.Med			R.Heel.Upper			R.Heel.Med			R.Heel.Lat			R.Toe.Lat			R.Toe.Med			R.Toe.Tip			L.Thigh.Upper.Post			L.Thigh.Lower.Ant			L.Thigh.Lower.Post			L.Thigh.Upper.Ant			L.Knee.Lat			L.Knee.Med			L.Shank.Upper.Post			L.Shank.Lower.Ant			L.Shank.Lower.Post			L.Shank.Upper.Ant			L.Ankle.Lat			L.Ankle.Med			L.Heel.Upper			L.Heel.Med			L.Heel.Lat			L.Toe.Lat			L.Toe.Med			L.Toe.Tip			Cervical.Spine			Back			
		X1	Y1	Z1	X2	Y2	Z2	X3	Y3	Z3	X4	Y4	Z4	X5	Y5	Z5	X6	Y6	Z6	X7	Y7	Z7	X8	Y8	Z8	X9	Y9	Z9	X10	Y10	Z10	X11	Y11	Z11	X12	Y12	Z12	X13	Y13	Z13	X14	Y14	Z14	X15	Y15	Z15	X16	Y16	Z16	X17	Y17	Z17	X18	Y18	Z18	X19	Y19	Z19	X20	Y20	Z20	X21	Y21	Z21	X22	Y22	Z22	X23	Y23	Z23	X24	Y24	Z24	X25	Y25	Z25	X26	Y26	Z26	X27	Y27	Z27	X28	Y28	Z28	X29	Y29	Z29	X30	Y30	Z30	X31	Y31	Z31	X32	Y32	Z32	X33	Y33	Z33	X34	Y34	Z34	X35	Y35	Z35	X36	Y36	Z36	X37	Y37	Z37	X38	Y38	Z38	X39	Y39	Z39	X40	Y40	Z40	X41	Y41	Z41	X42	Y42	Z42	X43	Y43	Z43	X44	Y44	Z44	X45	Y45	Z45	X46	Y46	Z46	X47	Y47	Z47	X48	Y48	Z48	X49	Y49	Z49	X50	Y50	Z50	X51	Y51	Z51	

229	0.95	-298.16	1201	369.72	-444.94	1445.4	527.5	-448.74	1436.8	212.91	-407.23	1747.7	361.45	-330.67	1036.7	485.82	-354.31	1029.6	241.56	-559.91	1048.2	428.35	-561.18	1043.8	338.2	-402.15	948.5	565.41	-426.94	934.66	180.22	-419.7	1114.3	536.34	-470.01	1116.7	214.26	-579.1	1010	382.54	-408.2	692.1	529.77	-344.2	592.7	476.04	-420.08	602.88	499.6	-340.06	677.95	509.19	-373.67	518.79	468.56	-394.57	516.92	348.95	-465.94	350.28	476.52	-405.56	284.45	456.81	-476.84	275.42	463.46	-400.96	357.07	471.7	-472.53	92.454	436.79	-454.22	103.37	345.8	-538.98	79.183	387.58	-530.11	46.733	359.16	-535.65	49.291	424.25	-374.14	41.099	470.94	-329.75	42.149	361.51	-281.16	58.226	406.57	-389.28	673.92	206.73	-284.69	611.31	177.91	-342.36	595.77	212.13	-328.9	687.51	168.17	-285.58	537.88	184.29	-227.8	540.54	313.97	-384.19	453.36	189.17	-377.13	342.91	188.76	-423.45	387.27	198.06	-337.86	409.88	180.89	-510.96	206.79	222.57	-475.71	188.45	308.8	-576.79	208.51	292.09	-572.45	179.8	323.08	-597.44	187.02	266.79	-474.17	90.772	175.89	-417.65	67.731	271.23	-380.33	59.011	203.13	-521.78	1489.1	382.26	-563.65	1220.2	374.68
230	0.95417	-293.38	1201.4	369.81	-439.64	1445.8	527.42	-443.78	1437	212.88	-401.72	1747.9	361.28	-326.35	1036.7	486.24	-349.26	1030.1	241.94	-555.3	1048.3	427.68	-556.38	1044	337.53	-398.28	948.48	565.37	-421.18	935.52	179.89	-415.5	1114.3	536.4	-464.78	1117.3	214.15	-574.33	1010.1	381.76	-405.98	692.34	529.63	-342.48	592.45	476.25	-418.35	603.14	499.62	-337.79	677.71	509.26	-372.55	518.65	468.73	-393.3	516.81	349.12	-465.34	350.45	476.59	-405.11	284.5	456.91	-476.41	275.6	463.48	-400.36	357.09	471.8	-472.44	92.565	436.75	-454.15	103.45	345.77	-538.96	79.321	387.54	-530.18	46.834	359.09	-535.6	49.427	424.21	-374.17	41.053	470.95	-329.68	42.13	361.52	-281.1	58.108	406.61	-382.39	674.76	206.19	-277.34	612.86	178.01	-335.1	596.88	211.84	-321.91	688.74	168.03	-277.63	538.95	184.61	-220.67	542.37	314.32	-374.95	452.11	188.98	-365.41	341.85	188.48	-412.74	385.14	197.62	-327.64	409.7	180.86	-496.17	202.65	221.48	-460.72	184.81	307.83	-562.43	202.23	290.85	-557.33	173.35	321.6	-582.26	180.32	265.31	-456.06	88.067	174.29	-399.32	65.967	269.7	-361.51	58.738	201.71	-516.62	1489.5	382.29	-558.7	1220.6	374.75
231	0.95833	-288.58	1201.7	369.9	-434.35	1446.2	527.34	-438.81	1437.3	212.85	-396.21	1748.1	361.11	-322.03	1036.8	486.64	-344.21	1030.6	242.29	-550.7	1048.4	427	-551.57	1044.2	336.84	-394.41	948.43	565.31	-415.42	936.32	179.55	-411.3	1114.2	536.45	-459.51	1117.9	214.04	-569.55	1010.1	380.97	-403.76	692.57	529.48	-340.76	592.2	476.45	-416.59	603.38	499.64	-335.52	677.47	509.32	-371.4	518.51	468.91	-392.01	516.68	349.29	-464.72	350.61	476.65	-404.64	284.55	457.01	-475.96	275.79	463.51	-399.75	357.12	471.91	-472.36	92.679	436.71	-454.07	103.54	345.73	-538.93	79.457	387.48	-530.24	46.935	359.02	-535.54	49.563	424.17	-374.19	41.007	470.95	-329.61	42.108	361.53	-281.04	57.988	406.65	-375.62	675.54	205.68	-270.11	614.3	178.16	-327.97	597.92	211.59	-315.01	689.89	167.93	-269.83	539.93	184.96	-213.69	544.09	314.7	-365.77	450.75	188.82	-353.68	340.74	188.22	-402.02	382.92	197.2	-317.47	409.45	180.85	-481.23	198.45	220.37	-445.59	181.13	306.85	-547.84	195.88	289.59	-541.98	166.86	320.11	-566.84	173.57	263.81	-437.81	85.397	172.71	-380.88	64.263	268.19	-342.61	58.538	200.31	-511.45	1489.7	382.31	-553.75	1221	374.8
232	0.9625	-283.77	1202	370.01	-429.07	1446.5	527.25	-433.84	1437.4	212.81	-390.71	1748.2	360.94	-317.71	1036.7	487.01	-339.14	1031.1	242.62	-546.1	1048.4	426.31	-546.76	1044.3	336.15	-390.54	948.36	565.24	-409.66	937.06	179.2	-407.09	1114.1	536.48	-454.19	1118.4	213.92	-564.76	1010.1	380.17	-401.54	692.78	529.34	-339.01	591.94	476.64	-414.81	603.62	499.66	-333.24	677.22	509.37	-370.23	518.36	469.07	-390.7	516.54	349.45	-464.09	350.78	476.7	-404.17	284.6	457.11	-475.51	275.98	463.52	-399.13	357.14	472.01	-472.27	92.795	436.67	-453.96	103.62	345.69	-538.9	79.59	387.43	-530.28	47.035	358.95	-535.49	49.699	424.13	-374.21	40.961	470.96	-329.55	42.082	361.54	-280.98	57.866	406.68	-368.95	676.27	205.21	-263.01	615.61	178.36	-320.98	598.88	211.38	-308.21	690.95	167.86	-262.18	540.81	185.34	-206.88	545.69	315.12	-356.64	449.27	188.68	-341.96	339.59	187.97	-391.3	380.59	196.78	-307.36	409.14	180.88	-466.13	194.2	219.26	-430.32	177.4	305.86	-533.03	189.48	288.31	-526.4	160.34	318.61	-551.19	166.77	262.29	-419.44	82.773	171.14	-362.31	62.63	266.7	-323.64	58.42	198.94	-506.29	1490	382.32	-548.79	1221.3	374.85
233	0.96667	-278.95	1202.2	370.12	-423.79	1446.8	527.17	-428.87	1437.6	212.76	-385.21	1748.3	360.76	-313.38	1036.7	487.35	-334.06	1031.5	242.92	-541.5	1048.4	425.61	-541.94	1044.4	335.46	-386.67	948.25	565.15	-403.91	937.75	178.83	-402.87	1114	536.48	-448.85	1118.8	213.8	-559.97	1010.1	379.36	-399.3	692.96	529.19	-337.25	591.68	476.82	-413	603.84	499.68	-330.95	676.96	509.4	-369.04	518.2	469.23	-389.36	516.39	349.59	-463.44	350.94	476.74	-403.7	284.64	457.21	-475.04	276.17	463.53	-398.5	357.16	472.11	-472.18	92.913	436.62	-453.83	103.71	345.65	-538.86	79.719	387.37	-530.3	47.132	358.88	-535.43	49.834	424.09	-374.22	40.913	470.97	-329.48	42.053	361.55	-280.91	57.743	406.72	-362.4	676.94	204.78	-256.03	616.81	178.61	-314.12	599.75	211.22	-301.52	691.91	167.84	-254.7	541.59	185.76	-200.24	547.16	315.56	-347.56	447.67	188.56	-330.24	338.39	187.74	-380.57	378.18	196.38	-297.32	408.76	180.93	-450.88	189.94	218.13	-414.91	173.66	304.85	-517.98	183.03	287	-510.58	153.82	317.11	-535.29	159.94	260.76	-400.95	80.209	169.58	-343.63	61.08	265.23	-304.6	58.39	197.6	-501.11	1490.2	382.32	-543.83	1221.6	374.88
234	0.97083	-274.1	1202.4	370.24	-418.51	1447	527.09	-423.89	1437.6	212.71	-379.72	1748.4	360.58	-309.05	1036.5	487.66	-328.98	1031.8	243.18	-536.89	1048.4	424.92	-537.11	1044.5	334.77	-382.8	948.11	565.04	-398.17	938.37	178.45	-398.64	1113.9	536.47	-443.47	1119.2	213.67	-555.17	1010.1	378.55	-397.04	693.13	529.04	-335.48	591.41	476.97	-411.16	604.04	499.7	-328.65	676.69	509.41	-367.82	518.03	469.39	-387.99	516.24	349.72	-462.78	351.1	476.78	-403.22	284.69	457.3	-474.56	276.35	463.53	-397.86	357.18	472.2	-472.08	93.033	436.57	-453.67	103.79	345.59	-538.82	79.842	387.3	-530.3	47.225	358.82	-535.38	49.969	424.05	-374.22	40.865	470.97	-329.42	42.02	361.57	-280.84	57.618	406.77	-355.96	677.54	204.39	-249.18	617.88	178.91	-307.4	600.52	211.11	-294.94	692.78	167.86	-247.37	542.26	186.21	-193.75	548.52	316.04	-338.54	445.96	188.46	-318.52	337.15	187.52	-369.84	375.67	195.99	-287.33	408.32	181	-435.48	185.66	216.99	-399.35	169.91	303.83	-502.7	176.57	285.68	-494.53	147.32	315.59	-519.16	153.11	259.2	-382.34	77.716	168.05	-324.84	59.625	263.77	-285.51	58.458	196.27	-495.94	1490.3	382.31	-538.86	1221.8	374.9
